<svg id="AppStore" xmlns="http://www.w3.org/2000/svg" width="508" height="160" viewBox="0 0 508 160">
  <defs>
    <style>
      .cls-1 {
        fill: #a6a6a6;
      }

      .cls-2 {
        fill: #060004;
      }

      .cls-3 {
        fill: #fff;
        fill-rule: evenodd;
      }
    </style>
  </defs>
  <g id="основа">
    <rect id="контур" class="cls-1" width="508" height="160" rx="26" ry="26"/>
    <rect id="заливка" class="cls-2" x="3" y="3" width="502" height="154" rx="24" ry="24"/>
  </g>
  <path id="fr" class="cls-3" d="M99.975,81.2a19.78,19.78,0,0,1,9.463-16.608,20.363,20.363,0,0,0-16.026-8.631c-6.743-.7-13.28,4.02-16.716,4.02-3.5,0-8.793-3.95-14.489-3.833a21.353,21.353,0,0,0-17.96,10.912c-7.766,13.394-1.973,33.078,5.466,43.9,3.722,5.3,8.072,11.223,13.763,11.013,5.57-.231,7.65-3.538,14.372-3.538,6.661,0,8.612,3.538,14.419,3.4,5.976-.1,9.741-5.325,13.333-10.676a43.821,43.821,0,0,0,6.1-12.37A19.128,19.128,0,0,1,99.975,81.2ZM89.007,48.844a19.441,19.441,0,0,0,4.475-13.962A19.93,19.93,0,0,0,80.6,41.52,18.5,18.5,0,0,0,76.01,54.966,16.484,16.484,0,0,0,89.007,48.844Zm54.669,9.963V38.313h-7.537V34.94h18.779v3.373H147.4V58.807h-3.721Zm28.546-4.864a7.339,7.339,0,0,1-7.834,5.211,8.182,8.182,0,0,1-8.353-9.3,8.314,8.314,0,0,1,7.159-9.337,8.4,8.4,0,0,1,1.178-.073c5.031,0,8.066,3.424,8.066,9.08v1.24H159.671v0.2a4.765,4.765,0,0,0,4.361,5.143c0.151,0.013.3,0.018,0.454,0.017a4.337,4.337,0,0,0,4.3-2.184h3.435Zm-12.551-5.8H168.8a4.351,4.351,0,0,0-4.028-4.655q-0.212-.016-0.423-0.011a4.615,4.615,0,0,0-4.681,4.548c0,0.039,0,.078,0,0.118h0Zm2.556-10.356,4.168-5.69h4.184l-4.666,5.69h-3.686Zm15.167-4.02h3.569V58.807h-3.569V33.764Zm24.716,20.18a7.341,7.341,0,0,1-7.835,5.211,8.182,8.182,0,0,1-8.352-9.3,8.313,8.313,0,0,1,7.158-9.337,8.41,8.41,0,0,1,1.178-.073c5.032,0,8.066,3.424,8.066,9.08v1.24H189.558v0.2a4.765,4.765,0,0,0,4.361,5.143c0.151,0.013.3,0.018,0.454,0.017a4.34,4.34,0,0,0,4.3-2.184h3.435Zm-12.552-5.8h9.132a4.35,4.35,0,0,0-4.028-4.655c-0.14-.01-0.281-0.014-0.422-0.011a4.615,4.615,0,0,0-4.682,4.548C189.557,48.06,189.557,48.1,189.558,48.139Zm2.556-10.356,4.169-5.69h4.184l-4.667,5.69h-3.686Zm26.841,8.9a4.035,4.035,0,0,0-4.27-3.058c-2.988,0-4.815,2.281-4.815,6.119,0,3.9,1.843,6.236,4.815,6.236a3.929,3.929,0,0,0,4.27-2.961h3.471a7.07,7.07,0,0,1-7.721,6.137,8.275,8.275,0,0,1-8.486-9.412,8.236,8.236,0,0,1,8.466-9.295,7.131,7.131,0,0,1,7.741,6.234h-3.471Zm8.208-12.918H230.7V43.69h0.283a5.567,5.567,0,0,1,5.513-3.227,5.935,5.935,0,0,1,6.227,6.715V58.807H239.15V48.055c0-2.877-1.346-4.334-3.867-4.334a4.206,4.206,0,0,0-4.552,4.566V58.807h-3.569V33.764Zm20.045,19.949c0-3.242,2.423-5.111,6.725-5.377l4.9-.281V46.5c0-1.9-1.263-2.976-3.7-2.976-1.992,0-3.373.728-3.769,2h-3.454c0.364-3.094,3.286-5.078,7.387-5.078,4.533,0,7.088,2.248,7.088,6.053V58.807h-3.433V56.276h-0.282a6.09,6.09,0,0,1-5.431,2.828,5.457,5.457,0,0,1-6-4.849A5.149,5.149,0,0,1,247.208,53.713Zm11.622-1.539V50.668l-4.415.281c-2.49.166-3.619,1.01-3.619,2.6,0,1.621,1.411,2.564,3.352,2.564a4.257,4.257,0,0,0,4.67-3.8q0.007-.07.012-0.14h0ZM267.969,40.8H271.4v2.762h0.267a4.9,4.9,0,0,1,4.882-3.061,7.54,7.54,0,0,1,1.592.148v3.508a9.826,9.826,0,0,0-1.992-.215,4.232,4.232,0,0,0-4.6,3.826c-0.012.136-.018,0.272-0.017,0.408V58.807h-3.568V40.8Zm13.457,19.814h3.651c0.3,1.307,1.812,2.15,4.219,2.15,2.972,0,4.733-1.406,4.733-3.787V55.516h-0.267a6.085,6.085,0,0,1-5.579,3.025c-4.616,0-7.47-3.554-7.47-8.947,0-5.492,2.885-9.1,7.5-9.1a6.272,6.272,0,0,1,5.678,3.176h0.282V40.8h3.42v18.16c0,4.119-3.24,6.732-8.353,6.732C284.728,65.688,281.807,63.67,281.426,60.609ZM294.1,49.576c0-3.588-1.863-5.886-4.9-5.886-3.07,0-4.8,2.3-4.8,5.886s1.725,5.889,4.8,5.889,4.9-2.281,4.9-5.889h0Zm24.476,4.367a7.341,7.341,0,0,1-7.835,5.211,8.182,8.182,0,0,1-8.352-9.3,8.313,8.313,0,0,1,7.159-9.337,8.4,8.4,0,0,1,1.178-.073c5.031,0,8.066,3.424,8.066,9.08v1.24H306.02v0.2a4.766,4.766,0,0,0,4.362,5.143c0.15,0.013.3,0.018,0.454,0.017a4.338,4.338,0,0,0,4.3-2.184h3.435Zm-12.552-5.8h9.133a4.352,4.352,0,0,0-4.029-4.655c-0.14-.01-0.281-0.014-0.422-0.011a4.616,4.616,0,0,0-4.682,4.548v0.118h0ZM323.58,40.8h3.435v2.762h0.266a4.9,4.9,0,0,1,4.882-3.061,7.54,7.54,0,0,1,1.592.148v3.508a9.834,9.834,0,0,0-1.992-.215,4.232,4.232,0,0,0-4.6,3.826,3.987,3.987,0,0,0-.017.409V58.807H323.58V40.8Zm23.033,9c0-5.691,2.937-9.3,7.5-9.3a5.963,5.963,0,0,1,5.544,3.16h0.267V33.764H363.5V58.807h-3.419V55.961H359.8a6.281,6.281,0,0,1-5.678,3.143C349.518,59.1,346.613,55.5,346.613,49.793Zm3.686,0c0,3.82,1.807,6.119,4.831,6.119,3.007,0,4.866-2.332,4.866-6.1,0-3.754-1.878-6.119-4.866-6.119-3,0-4.831,2.314-4.831,6.1h0Zm18.022,3.92c0-3.242,2.423-5.111,6.725-5.377l4.9-.281V46.5c0-1.9-1.263-2.976-3.7-2.976-1.992,0-3.372.728-3.768,2h-3.454c0.364-3.094,3.285-5.078,7.387-5.078,4.533,0,7.09,2.248,7.09,6.053V58.807h-3.435V56.276h-0.283a6.089,6.089,0,0,1-5.431,2.828,5.457,5.457,0,0,1-6-4.849A5.16,5.16,0,0,1,368.321,53.713Zm11.622-1.539V50.668l-4.415.281c-2.49.166-3.62,1.01-3.62,2.6,0,1.621,1.412,2.564,3.353,2.564a4.258,4.258,0,0,0,4.67-3.8q0.007-.07.012-0.14h0ZM389.084,40.8h3.435v2.862h0.266a5.415,5.415,0,0,1,5.4-3.209,5.874,5.874,0,0,1,6.305,5.4,5.8,5.8,0,0,1-.047,1.3v11.66h-3.568V48.04c0-2.895-1.263-4.334-3.9-4.334a4.131,4.131,0,0,0-4.317,4.564V58.807h-3.568V40.8Zm27.483-.348c4.067,0,6.725,1.885,7.074,5.061h-3.423c-0.329-1.322-1.627-2.166-3.651-2.166-1.992,0-3.5.941-3.5,2.348,0,1.076.913,1.754,2.874,2.2l3,0.693c3.439,0.795,5.05,2.268,5.05,4.914,0,3.391-3.172,5.656-7.489,5.656-4.3,0-7.1-1.936-7.423-5.127h3.572a3.671,3.671,0,0,0,3.933,2.248c2.223,0,3.8-.992,3.8-2.432,0-1.074-.848-1.769-2.659-2.2l-3.153-.728c-3.438-.81-5.031-2.348-5.031-5.027C409.544,42.7,412.481,40.448,416.567,40.448ZM141.84,72.268h7.467v49.673H141.84V72.268ZM158.3,90.443l4.078-18.176h7.254l-4.94,18.176H158.3Zm39.545,18.073H178.841l-4.564,13.426h-8.05l18-49.674h8.364l18,49.674h-8.187Zm-17.037-6.2h15.065l-7.427-21.792h-0.207Zm68.66,1.515c0,11.254-6.046,18.484-15.171,18.484a12.335,12.335,0,0,1-11.438-6.335h-0.173v17.937h-7.462v-48.2h7.223v6.023h0.137a12.908,12.908,0,0,1,11.576-6.4C243.389,85.346,249.47,92.611,249.47,103.836Zm-7.67,0c0-7.334-3.8-12.154-9.607-12.154-5.7,0-9.536,4.922-9.536,12.154,0,7.3,3.835,12.184,9.536,12.184C238,116.02,241.8,111.235,241.8,103.836Zm47.681,0c0,11.254-6.047,18.484-15.172,18.484a12.335,12.335,0,0,1-11.438-6.335H262.7v17.937h-7.459v-48.2h7.22v6.023H262.6a12.905,12.905,0,0,1,11.575-6.4C283.4,85.346,289.481,92.611,289.481,103.836Zm-7.671,0c0-7.334-3.8-12.154-9.606-12.154-5.7,0-9.537,4.922-9.537,12.154,0,7.3,3.835,12.184,9.537,12.184C278.007,116.02,281.81,111.235,281.81,103.836Zm34.115,4.266c0.553,4.925,5.357,8.16,11.921,8.16,6.289,0,10.814-3.235,10.814-7.676,0-3.855-2.729-6.164-9.191-7.746l-6.462-1.553c-9.156-2.2-13.407-6.468-13.407-13.39,0-8.57,7.5-14.457,18.143-14.457,10.537,0,17.76,5.886,18,14.457h-7.533c-0.451-4.957-4.564-7.949-10.575-7.949s-10.125,3.028-10.125,7.434c0,3.512,2.627,5.578,9.054,7.16l5.494,1.344c10.23,2.41,14.481,6.506,14.481,13.771,0,9.293-7.431,15.113-19.249,15.113-11.058,0-18.524-5.683-19.006-14.668h7.638Zm46.726-30.947v8.57h6.913v5.886h-6.913v19.967c0,3.1,1.384,4.547,4.423,4.547a23.434,23.434,0,0,0,2.455-.172v5.852a20.577,20.577,0,0,1-4.145.343c-7.36,0-10.231-2.753-10.231-9.777V91.611h-5.286V85.725h5.286v-8.57h7.5Zm10.912,26.681c0-11.4,6.737-18.557,17.242-18.557,10.54,0,17.245,7.16,17.245,18.557,0,11.426-6.669,18.555-17.245,18.555S373.563,115.262,373.563,103.836Zm26.884,0c0-7.818-3.6-12.431-9.642-12.431s-9.638,4.648-9.638,12.431c0,7.848,3.591,12.426,9.638,12.426s9.642-4.578,9.642-12.426h0ZM414.2,85.725h7.117v6.164h0.173a8.665,8.665,0,0,1,8.744-6.543,11.539,11.539,0,0,1,2.556.278v6.953a10.463,10.463,0,0,0-3.353-.449,7.507,7.507,0,0,0-7.817,7.182,7.388,7.388,0,0,0,.042,1.152v21.48H414.2V85.725Zm52.991,25.58c-1,6.574-7.431,11.086-15.654,11.086-10.575,0-17.139-7.059-17.139-18.383,0-11.361,6.6-18.729,16.826-18.729,10.058,0,16.383,6.883,16.383,17.866v2.547H441.934v0.449a9.441,9.441,0,0,0,8.595,10.227,9.55,9.55,0,0,0,1.184.031,8.227,8.227,0,0,0,8.395-5.094h7.086ZM441.969,100.5h18.175a8.722,8.722,0,0,0-8.242-9.182q-0.337-.019-0.675-0.011a9.186,9.186,0,0,0-9.258,9.114V100.5Z"/>
</svg>
