<svg id="GooglePlay" xmlns="http://www.w3.org/2000/svg" width="508" height="160" viewBox="0 0 508 160">
  <defs>
    <style>
      .cls-1 {
        fill: #a6a6a6;
      }

      .cls-2 {
        fill: #060004;
      }

      .cls-3 {
        fill: #ffd800;
      }

      .cls-3, .cls-4, .cls-5, .cls-6, .cls-7 {
        fill-rule: evenodd;
      }

      .cls-4 {
        fill: #f3314a;
      }

      .cls-5 {
        fill: #00f076;
      }

      .cls-6 {
        fill: #00daff;
      }

      .cls-7 {
        fill: #fff;
      }
    </style>
  </defs>
  <g id="основа">
    <rect id="контур" class="cls-1" width="508" height="160" rx="26" ry="26"/>
    <rect id="заливка" class="cls-2" x="3" y="3" width="502" height="154" rx="24" ry="24"/>
  </g>
  <g id="знак">
    <path id="жел" class="cls-3" d="M102.553,97.1l-16.5-16.512V79.416l16.507-16.51,0.374,0.213L122.486,74.23c5.586,3.172,5.586,8.365,0,11.539L102.932,96.881Z"/>
    <path id="крас" class="cls-4" d="M102.932,96.881L86.051,80,36.24,129.81c1.842,1.95,4.881,2.19,8.306.245l58.385-33.174"/>
    <path id="зел" class="cls-5" d="M102.932,63.119L44.547,29.945c-3.426-1.947-6.465-1.7-8.306.244L86.051,80Z"/>
    <path id="гол" class="cls-6" d="M36.24,30.19a8,8,0,0,0-1.85,5.615V124.2a8,8,0,0,0,1.85,5.615l0.295,0.29L86.051,80.584V79.416L36.535,29.9Z"/>
  </g>
  <path id="fr" class="cls-7" d="M396.719,52.4h-3.867l-6.469-9.721h-2.807V52.4h-3.882V27.6h8.58a7.985,7.985,0,0,1,5.546,2.131,7.3,7.3,0,0,1,.621,10.11,7.509,7.509,0,0,1-3.851,2.448l6.529,9.453V52.4h-0.4ZM388.34,31.349h-4.764V39h4.561a4.136,4.136,0,0,0,2.9-1.1,3.539,3.539,0,0,0,1.193-2.753,3.824,3.824,0,0,0-1.07-2.616A3.573,3.573,0,0,0,388.34,31.349ZM366.25,52.935a8.828,8.828,0,0,1-6.713-2.739,9.971,9.971,0,0,1-2.57-7.112V27.6h3.882V43.219a6.482,6.482,0,0,0,1.4,4.351,5.761,5.761,0,0,0,8,0,6.486,6.486,0,0,0,1.4-4.351V27.6h3.886V43.084a10.1,10.1,0,0,1-2.5,7.124A8.788,8.788,0,0,1,366.25,52.935Zm-15-12.941a6.081,6.081,0,0,1,1.972,2.367,7.548,7.548,0,0,1,.658,3.236,7,7,0,0,1-.764,3.3,6.261,6.261,0,0,1-2.044,2.326A9.9,9.9,0,0,1,348.4,52.5a10.038,10.038,0,0,1-2.933.435,9.351,9.351,0,0,1-5.335-1.777A8.3,8.3,0,0,1,336.7,46.13l-0.084-.337,0.322-.13,3.241-1.31,0.113,0.444a6.017,6.017,0,0,0,1.933,3.131,4.8,4.8,0,0,0,3.242,1.26,5.217,5.217,0,0,0,3.2-.976,2.973,2.973,0,0,0,1.26-2.546,3.267,3.267,0,0,0-1.265-2.782,14.391,14.391,0,0,0-4.381-1.964h0a12.412,12.412,0,0,1-4.986-2.692,5.835,5.835,0,0,1-1.766-4.36,6.362,6.362,0,0,1,2.174-4.782,7.9,7.9,0,0,1,5.6-2.02,8.118,8.118,0,0,1,5.211,1.613,7.452,7.452,0,0,1,2.612,3.529l0.109,0.348-0.337.141-3.234,1.348-0.119-.442a3.77,3.77,0,0,0-1.358-1.9,4.844,4.844,0,0,0-5.6.022,2.612,2.612,0,0,0-1.105,2.148,2.4,2.4,0,0,0,1.006,1.951h0a10.733,10.733,0,0,0,3.278,1.591h0a29.269,29.269,0,0,1,3.01,1.123A13.881,13.881,0,0,1,351.25,39.994ZM312.42,27.6h14.812v3.749H316.3v6.809h9.856v3.683H316.3v6.809h10.93V52.4H312.42V27.6ZM295.057,52.4V27.6h3.882V48.651H309.33V52.4H295.057Zm-4.581-10.9h0a5.858,5.858,0,0,1,1.224,3.664,6.7,6.7,0,0,1-2.3,5.19,7.793,7.793,0,0,1-5.38,2.048h-9.549V27.6h9.08a7.454,7.454,0,0,1,5.147,1.962,6.443,6.443,0,0,1,2.194,4.973,5.633,5.633,0,0,1-.96,3.242,5.894,5.894,0,0,1-1.89,1.781A6.475,6.475,0,0,1,290.476,41.5Zm-4.386-9.138,0,0a3.036,3.036,0,0,0-2.4-1.007h-5.335v6.54h5.2a3.2,3.2,0,0,0,2.5-1.026A3.18,3.18,0,0,0,286.09,32.359Zm0.625,10.31a3.486,3.486,0,0,0-2.691-1.1h-5.667v7.079h5.8a3.276,3.276,0,0,0,2.585-1.109,3.578,3.578,0,0,0,1-2.448A3.466,3.466,0,0,0,286.715,42.669Zm3.221-4.891h0ZM266.3,52.4h-0.4V27.6h3.882V52.4H266.3Zm-8.937,0L245.682,33.668l0.1,3.379V52.4H241.9V27.6h4.375l11.14,17.83-0.1-3.38V27.6H261.2V52.4H257.36Zm-31.727.535a12.17,12.17,0,0,1-9.084-3.758A12.676,12.676,0,0,1,212.9,40a12.674,12.674,0,0,1,3.648-9.177,12.82,12.82,0,0,1,18.156.016A12.678,12.678,0,0,1,238.369,40a12.7,12.7,0,0,1-3.649,9.177A12.181,12.181,0,0,1,225.633,52.935Zm6.235-19.543a8.829,8.829,0,0,0-12.47,0A9,9,0,0,0,216.849,40a9,9,0,0,0,2.549,6.608,8.828,8.828,0,0,0,12.47,0A8.991,8.991,0,0,0,234.42,40,8.993,8.993,0,0,0,231.868,33.392Zm-28.454,9.287h-4.7V52.4h-3.882V27.6h8.58a7.985,7.985,0,0,1,5.546,2.131,7.371,7.371,0,0,1,0,10.814A7.979,7.979,0,0,1,203.414,42.679ZM206.3,32.524a3.575,3.575,0,0,0-2.82-1.175h-4.764v7.579h4.764a3.579,3.579,0,0,0,2.82-1.171A3.733,3.733,0,0,0,206.3,32.524Zm-17.722,7.47a6.081,6.081,0,0,1,1.972,2.367,7.533,7.533,0,0,1,.658,3.236,7,7,0,0,1-.764,3.3,6.261,6.261,0,0,1-2.044,2.326,9.9,9.9,0,0,1-2.67,1.274,10.038,10.038,0,0,1-2.933.435,9.351,9.351,0,0,1-5.335-1.777,8.309,8.309,0,0,1-3.432-5.029l-0.084-.337,0.322-.13,3.241-1.31,0.113,0.444a6.017,6.017,0,0,0,1.933,3.131,4.8,4.8,0,0,0,3.242,1.26,5.217,5.217,0,0,0,3.2-.976,2.973,2.973,0,0,0,1.26-2.546,3.267,3.267,0,0,0-1.265-2.782,14.391,14.391,0,0,0-4.381-1.964h0a12.417,12.417,0,0,1-4.987-2.692,5.835,5.835,0,0,1-1.766-4.36,6.362,6.362,0,0,1,2.174-4.782,7.9,7.9,0,0,1,5.6-2.02,8.118,8.118,0,0,1,5.211,1.613,7.452,7.452,0,0,1,2.612,3.529l0.109,0.348-0.337.141-3.234,1.348-0.118-.442a3.778,3.778,0,0,0-1.359-1.9,4.844,4.844,0,0,0-5.6.022,2.612,2.612,0,0,0-1.1,2.148,2.4,2.4,0,0,0,1.006,1.951h0a10.733,10.733,0,0,0,3.278,1.591h0a29.269,29.269,0,0,1,3.01,1.123A13.881,13.881,0,0,1,188.578,39.994ZM167.449,52.4h-0.4V27.6h3.882V52.4h-3.482Zm-16.5,0h-7.74V27.6h7.74a12.334,12.334,0,0,1,9.135,3.454A12.152,12.152,0,0,1,163.521,40a12.157,12.157,0,0,1-3.433,8.946A12.335,12.335,0,0,1,150.953,52.4Zm6.305-18.769a8.578,8.578,0,0,0-6.305-2.282H147.1v17.3h3.858a8.6,8.6,0,0,0,6.306-2.267A8.5,8.5,0,0,0,159.569,40,8.519,8.519,0,0,0,157.258,33.631Zm93.785,53.375a17.013,17.013,0,1,0,17.078,17.014A16.769,16.769,0,0,0,251.043,87.006Zm0,27.324c-5.154,0-9.6-4.254-9.6-10.31,0-6.124,4.447-10.311,9.6-10.311s9.6,4.188,9.6,10.311C260.644,110.076,256.2,114.33,251.043,114.33ZM213.789,87.006a17.013,17.013,0,1,0,17.078,17.014A16.769,16.769,0,0,0,213.789,87.006Zm0,27.324c-5.154,0-9.6-4.254-9.6-10.31,0-6.124,4.447-10.311,9.6-10.311s9.6,4.188,9.6,10.311C223.391,110.076,218.945,114.33,213.789,114.33Zm-44.314-22.1v7.217h17.271c-0.516,4.061-1.869,7.024-3.932,9.086-2.513,2.514-6.445,5.285-13.339,5.285a19.206,19.206,0,0,1,0-38.408,18.4,18.4,0,0,1,13.017,5.156l5.092-5.092a25.182,25.182,0,0,0-18.109-7.281c-14.565,0-26.809,11.857-26.809,26.422s12.244,26.42,26.809,26.42c7.861,0,13.791-2.578,18.429-7.41,4.77-4.769,6.252-11.471,6.252-16.885a23.612,23.612,0,0,0-.386-4.51h-24.3Zm181.232,5.606c-1.418-3.8-5.734-10.826-14.563-10.826-8.765,0-16.046,6.9-16.046,17.014a16.647,16.647,0,0,0,16.882,17.011,16.93,16.93,0,0,0,14.18-7.539l-5.8-3.867a9.714,9.714,0,0,1-8.379,4.7,8.651,8.651,0,0,1-8.246-5.156l22.746-9.408Zm-23.2,5.672A9.333,9.333,0,0,1,336.4,93.58c2.965,0,5.477,1.482,6.317,3.608ZM309.016,120h7.472V69.994h-7.472V120ZM296.77,90.808h-0.258a11.791,11.791,0,0,0-8.957-3.8c-8.508,0-16.305,7.476-16.305,17.078,0,9.537,7.8,16.947,16.305,16.947a11.607,11.607,0,0,0,8.957-3.865h0.258v2.447c0,6.51-3.481,9.989-9.086,9.989a9.415,9.415,0,0,1-8.571-6.057l-6.507,2.707a16.208,16.208,0,0,0,15.078,10.053c8.765,0,16.175-5.157,16.175-17.723V88.037H296.77v2.771ZM288.2,114.33c-5.156,0-9.473-4.318-9.473-10.246,0-5.994,4.317-10.375,9.473-10.375,5.09,0,9.086,4.381,9.086,10.375C297.285,110.012,293.289,114.33,288.2,114.33Zm97.524-44.336H367.84V120H375.3V101.055h10.422c8.273,0,16.406-5.989,16.406-15.53S394,69.994,385.723,69.994Zm0.195,24.1H375.3V76.955h10.617A8.572,8.572,0,1,1,385.918,94.1Zm46.125-7.182c-5.4,0-11,2.381-13.317,7.656l6.626,2.766c1.418-2.766,4.054-3.666,6.82-3.666,3.859,0,7.785,2.314,7.848,6.432v0.515a16.524,16.524,0,0,0-7.786-1.929c-7.14,0-14.41,3.923-14.41,11.257,0,6.692,5.856,11,12.418,11,5.016,0,7.785-2.252,9.52-4.89h0.258v3.861h7.206V100.746C447.226,91.867,440.6,86.914,432.043,86.914Zm-0.9,27.406c-2.442,0-5.852-1.222-5.852-4.246,0-3.859,4.246-5.34,7.914-5.34a13.313,13.313,0,0,1,6.817,1.672A9.047,9.047,0,0,1,431.141,114.32Zm42.332-26.312-8.555,21.68H464.66l-8.879-21.68h-8.039l13.316,30.3-7.593,16.856h7.785l20.524-47.156h-8.3ZM406.246,120h7.461V69.994h-7.461V120Z"/>
</svg>
